<mxfile host="app.diagrams.net" modified="2023-09-01T07:08:57.978Z" agent="Mozilla/5.0 (X11; Linux x86_64) AppleWebKit/537.36 (KHTML, like Gecko) Chrome/110.0.0.0 Safari/537.36" version="21.6.9" etag="ocmFHB5tSC1s4XfvfHOH" type="github">
  <diagram name="第 1 页" id="Duk7vmqhz1knQf1MkCdo">
    <mxGraphModel>
      <root>
        <mxCell id="0" />
        <mxCell id="1" parent="0" />
      </root>
    </mxGraphModel>
  </diagram>
</mxfile>
